<svg width="128" height="128" viewBox="0 0 128 128" fill="none" xmlns="http://www.w3.org/2000/svg">
  <rect width="128" height="128" rx="32" fill="#F6F2E9"/>
  <path d="M37 78C37 58.67 52.67 43 72 43H91C91 62.33 75.33 78 56 78H37Z" fill="#2F7A46"/>
  <path d="M33 89C33 70.77 47.77 56 66 56H76C76 74.23 61.23 89 43 89H33Z" fill="#9E6A28"/>
  <path d="M55 40C62.5 46.84 66.25 54.84 66.25 64C66.25 73.16 62.5 82.66 55 92.5C47.5 82.66 43.75 73.16 43.75 64C43.75 54.84 47.5 46.84 55 40Z" fill="#57A15F"/>
</svg>
